<svg width="126" height="126" viewBox="0 0 126 126" fill="none" xmlns="http://www.w3.org/2000/svg">
<path d="M115.955 13.5819C97.5437 -6.31079 65.1655 0.673044 52.4683 22.8932C42.0989 41.0926 53.1032 74.5287 73.6303 80.2428C74.0536 80.4541 74.4768 80.2428 74.9 80.0312C86.7507 85.3217 101.987 78.3382 111.934 69.0269C128.228 53.7899 131.403 30.5116 115.955 13.5819ZM101.987 11.2541C102.622 11.4657 103.469 11.8889 104.104 12.1006C103.892 12.3122 103.892 12.5238 103.892 12.7354C103.257 12.3122 102.622 11.8889 101.987 11.4657C101.987 11.4657 101.987 11.4657 101.987 11.2541Z" fill="white"/>
<path d="M66.647 82.3588C66.4357 82.1472 66.2238 82.1472 65.8009 81.9352C65.1657 81.3004 64.3195 81.0888 63.473 81.3004C61.9917 81.0888 60.722 80.8771 59.2406 80.2423C56.278 78.7609 53.9501 75.7979 51.8339 73.0468C47.8132 67.5447 45.2737 61.1964 41.6762 55.4823C40.8297 54.0009 38.9251 54.6358 38.5019 56.1172C28.1325 67.9679 13.1075 77.2792 7.18212 92.3043C6.33564 94.6318 5.70078 97.3832 5.27754 100.134C4.64268 100.769 4.43106 101.616 4.8543 102.462C4.8543 102.674 5.06592 102.885 5.06592 103.097C5.06592 105.636 5.27754 108.176 6.12402 110.292C4.8543 111.985 3.37296 113.678 2.10324 115.371C0.410276 117.698 -1.07106 119.815 1.04514 122.354C3.16134 125.106 6.75888 124.259 9.0867 122.566C10.3564 121.72 12.0494 120.026 13.1075 118.333C13.7423 118.545 14.3772 118.757 15.2237 118.969C25.1698 121.296 36.3857 111.562 43.3691 105.848C50.3526 100.346 58.6058 93.7857 64.3195 86.8022C65.3776 86.5906 66.2241 86.1673 67.0706 85.3208C67.9167 84.4747 67.7054 82.7821 66.647 82.3588ZM39.5596 67.3337C39.5596 66.9102 39.7713 66.6989 39.9829 66.4873C40.4061 66.064 40.8294 65.4288 41.2526 64.7943C41.4642 65.2179 41.6758 65.6408 41.6758 66.0644C40.8297 66.064 39.9829 66.6989 39.5596 67.3337Z" fill="white"/>
</svg>
